HIERARCHY
ROOT Hips
{
	OFFSET -40.927921 -43.994530 87.584816
	CHANNELS 6 Xposition Yposition Zposition Zrotation Yrotation Xrotation
	JOINT Spine
	{
		OFFSET 0.000000 2.080109 8.814247
		CHANNELS 6 Xposition Yposition Zposition Zrotation Yrotation Xrotation
		JOINT Spine1
		{
			OFFSET 0.000000 0.000000 8.844139
			CHANNELS 6 Xposition Yposition Zposition Zrotation Yrotation Xrotation
			JOINT Spine2
			{
				OFFSET 0.000000 0.000000 11.682266
				CHANNELS 6 Xposition Yposition Zposition Zrotation Yrotation Xrotation
				JOINT Spine3
				{
					OFFSET 0.000000 0.000004 11.746696
					CHANNELS 6 Xposition Yposition Zposition Zrotation Yrotation Xrotation
					JOINT Neck
					{
						OFFSET 0.000000 0.000000 17.658264
						CHANNELS 6 Xposition Yposition Zposition Zrotation Yrotation Xrotation
						JOINT Neck1
						{
							OFFSET 0.000000 0.000000 5.101517
							CHANNELS 6 Xposition Yposition Zposition Zrotation Yrotation Xrotation
							JOINT Head
							{
								OFFSET 0.000000 0.000000 5.101517
								CHANNELS 6 Xposition Yposition Zposition Zrotation Yrotation Xrotation
								JOINT HeadEnd
								{
									OFFSET 0.000000 0.000000 11.655090
									CHANNELS 6 Xposition Yposition Zposition Zrotation Yrotation Xrotation
									End Site
									{
										OFFSET 0.000000 0.000000 0.100006
									}
								}
							}
						}
					}
					JOINT RightShoulder
					{
						OFFSET -2.625389 0.000000 11.175217
						CHANNELS 6 Xposition Yposition Zposition Zrotation Yrotation Xrotation
						JOINT RightArm
						{
							OFFSET 0.000000 0.000000 10.434723
							CHANNELS 6 Xposition Yposition Zposition Zrotation Yrotation Xrotation
							JOINT RightForeArm
							{
								OFFSET 0.000000 0.000004 29.628418
								CHANNELS 6 Xposition Yposition Zposition Zrotation Yrotation Xrotation
								JOINT RightHand
								{
									OFFSET 0.000000 0.000000 22.857605
									CHANNELS 6 Xposition Yposition Zposition Zrotation Yrotation Xrotation
									JOINT RightHandThumb1
									{
										OFFSET -2.867321 -2.944290 3.959564
										CHANNELS 6 Xposition Yposition Zposition Zrotation Yrotation Xrotation
										JOINT RightHandThumb2
										{
											OFFSET 0.000000 0.000000 3.350403
											CHANNELS 6 Xposition Yposition Zposition Zrotation Yrotation Xrotation
											JOINT RightHandThumb3
											{
												OFFSET 0.000000 0.000000 3.756516
												CHANNELS 6 Xposition Yposition Zposition Zrotation Yrotation Xrotation
												JOINT RightHandThumb4
												{
													OFFSET 0.000000 0.000000 3.147339
													CHANNELS 6 Xposition Yposition Zposition Zrotation Yrotation Xrotation
													End Site
													{
														OFFSET 0.000000 0.000000 0.100006
													}
												}
											}
										}
									}
									JOINT RightHandIndex1
									{
										OFFSET -0.086754 -2.345280 10.030899
										CHANNELS 6 Xposition Yposition Zposition Zrotation Yrotation Xrotation
										JOINT RightHandIndex2
										{
											OFFSET 0.000000 0.000000 4.061096
											CHANNELS 6 Xposition Yposition Zposition Zrotation Yrotation Xrotation
											JOINT RightHandIndex3
											{
												OFFSET 0.000000 0.000000 3.248871
												CHANNELS 6 Xposition Yposition Zposition Zrotation Yrotation Xrotation
												JOINT RightHandIndex4
												{
													OFFSET 0.000000 0.000000 2.639709
													CHANNELS 6 Xposition Yposition Zposition Zrotation Yrotation Xrotation
													End Site
													{
														OFFSET 0.000000 0.000000 0.100006
													}
												}
											}
										}
									}
									JOINT RightHandMiddle1
									{
										OFFSET 0.104103 -0.006767 9.502945
										CHANNELS 6 Xposition Yposition Zposition Zrotation Yrotation Xrotation
										JOINT RightHandMiddle2
										{
											OFFSET 0.000000 0.000000 4.568726
											CHANNELS 6 Xposition Yposition Zposition Zrotation Yrotation Xrotation
											JOINT RightHandMiddle3
											{
												OFFSET 0.000000 0.000000 3.654984
												CHANNELS 6 Xposition Yposition Zposition Zrotation Yrotation Xrotation
												JOINT RightHandMiddle4
												{
													OFFSET 0.000000 0.000000 2.741241
													CHANNELS 6 Xposition Yposition Zposition Zrotation Yrotation Xrotation
													End Site
													{
														OFFSET 0.000000 0.000000 0.100006
													}
												}
											}
										}
									}
									JOINT RightHandRing1
									{
										OFFSET 0.086754 2.267441 8.921707
										CHANNELS 6 Xposition Yposition Zposition Zrotation Yrotation Xrotation
										JOINT RightHandRing2
										{
											OFFSET 0.000000 0.000000 4.061096
											CHANNELS 6 Xposition Yposition Zposition Zrotation Yrotation Xrotation
											JOINT RightHandRing3
											{
												OFFSET 0.000000 0.000000 3.654984
												CHANNELS 6 Xposition Yposition Zposition Zrotation Yrotation Xrotation
												JOINT RightHandRing4
												{
													OFFSET 0.000000 0.000000 2.741241
													CHANNELS 6 Xposition Yposition Zposition Zrotation Yrotation Xrotation
													End Site
													{
														OFFSET 0.000000 0.000000 0.100006
													}
												}
											}
										}
									}
									JOINT RightHandPinky1
									{
										OFFSET -0.173504 4.467197 7.976990
										CHANNELS 6 Xposition Yposition Zposition Zrotation Yrotation Xrotation
										JOINT RightHandPinky2
										{
											OFFSET 0.000000 0.000000 3.350403
											CHANNELS 6 Xposition Yposition Zposition Zrotation Yrotation Xrotation
											JOINT RightHandPinky3
											{
												OFFSET 0.000000 0.000000 2.842758
												CHANNELS 6 Xposition Yposition Zposition Zrotation Yrotation Xrotation
												JOINT RightHandPinky4
												{
													OFFSET 0.000000 0.000000 2.639709
													CHANNELS 6 Xposition Yposition Zposition Zrotation Yrotation Xrotation
													End Site
													{
														OFFSET 0.000000 0.000000 0.100006
													}
												}
											}
										}
									}
									JOINT RightForeArmEnd
									{
										OFFSET 0.000000 0.000000 0.000000
										CHANNELS 6 Xposition Yposition Zposition Zrotation Yrotation Xrotation
										End Site
										{
											OFFSET 0.000000 0.000000 0.100006
										}
									}
								}
								JOINT RightArmEnd
								{
									OFFSET 0.000000 0.000000 0.000000
									CHANNELS 6 Xposition Yposition Zposition Zrotation Yrotation Xrotation
									End Site
									{
										OFFSET 0.000000 0.000000 0.100006
									}
								}
							}
						}
					}
					JOINT LeftShoulder
					{
						OFFSET 2.625389 0.000000 11.175217
						CHANNELS 6 Xposition Yposition Zposition Zrotation Yrotation Xrotation
						JOINT LeftArm
						{
							OFFSET 0.000000 0.000000 10.813629
							CHANNELS 6 Xposition Yposition Zposition Zrotation Yrotation Xrotation
							JOINT LeftForeArm
							{
								OFFSET 0.000000 0.000004 28.724777
								CHANNELS 6 Xposition Yposition Zposition Zrotation Yrotation Xrotation
								JOINT LeftHand
								{
									OFFSET 0.644382 0.328873 25.716171
									CHANNELS 6 Xposition Yposition Zposition Zrotation Yrotation Xrotation
									JOINT LeftHandThumb1
									{
										OFFSET 2.867325 -2.944290 3.959564
										CHANNELS 6 Xposition Yposition Zposition Zrotation Yrotation Xrotation
										JOINT LeftHandThumb2
										{
											OFFSET 0.000000 0.000000 3.350403
											CHANNELS 6 Xposition Yposition Zposition Zrotation Yrotation Xrotation
											JOINT LeftHandThumb3
											{
												OFFSET 0.000000 0.000000 3.756516
												CHANNELS 6 Xposition Yposition Zposition Zrotation Yrotation Xrotation
												JOINT LeftHandThumb4
												{
													OFFSET 0.000000 0.000000 3.100006
													CHANNELS 6 Xposition Yposition Zposition Zrotation Yrotation Xrotation
													End Site
													{
														OFFSET 0.000000 0.000000 0.100006
													}
												}
											}
										}
									}
									JOINT LeftHandIndex1
									{
										OFFSET 0.086754 -2.345280 10.030899
										CHANNELS 6 Xposition Yposition Zposition Zrotation Yrotation Xrotation
										JOINT LeftHandIndex2
										{
											OFFSET 0.000000 0.000000 4.061096
											CHANNELS 6 Xposition Yposition Zposition Zrotation Yrotation Xrotation
											JOINT LeftHandIndex3
											{
												OFFSET 0.000000 0.000000 3.248871
												CHANNELS 6 Xposition Yposition Zposition Zrotation Yrotation Xrotation
												JOINT LeftHandIndex4
												{
													OFFSET 0.000000 0.000000 2.639709
													CHANNELS 6 Xposition Yposition Zposition Zrotation Yrotation Xrotation
													End Site
													{
														OFFSET 0.000000 0.000000 0.100006
													}
												}
											}
										}
									}
									JOINT LeftHandMiddle1
									{
										OFFSET -0.104103 -0.006767 9.502945
										CHANNELS 6 Xposition Yposition Zposition Zrotation Yrotation Xrotation
										JOINT LeftHandMiddle2
										{
											OFFSET 0.000000 0.000000 4.568726
											CHANNELS 6 Xposition Yposition Zposition Zrotation Yrotation Xrotation
											JOINT LeftHandMiddle3
											{
												OFFSET 0.000000 0.000000 3.654984
												CHANNELS 6 Xposition Yposition Zposition Zrotation Yrotation Xrotation
												JOINT LeftHandMiddle4
												{
													OFFSET 0.000000 0.000000 2.741241
													CHANNELS 6 Xposition Yposition Zposition Zrotation Yrotation Xrotation
													End Site
													{
														OFFSET 0.000000 0.000000 0.100006
													}
												}
											}
										}
									}
									JOINT LeftHandRing1
									{
										OFFSET -0.086754 2.267441 8.921707
										CHANNELS 6 Xposition Yposition Zposition Zrotation Yrotation Xrotation
										JOINT LeftHandRing2
										{
											OFFSET 0.000000 0.000000 4.061096
											CHANNELS 6 Xposition Yposition Zposition Zrotation Yrotation Xrotation
											JOINT LeftHandRing3
											{
												OFFSET 0.000000 0.000000 3.654984
												CHANNELS 6 Xposition Yposition Zposition Zrotation Yrotation Xrotation
												JOINT LeftHandRing4
												{
													OFFSET 0.000000 0.000000 2.741241
													CHANNELS 6 Xposition Yposition Zposition Zrotation Yrotation Xrotation
													End Site
													{
														OFFSET 0.000000 0.000000 0.100006
													}
												}
											}
										}
									}
									JOINT LeftHandPinky1
									{
										OFFSET 0.173504 4.467197 7.976990
										CHANNELS 6 Xposition Yposition Zposition Zrotation Yrotation Xrotation
										JOINT LeftHandPinky2
										{
											OFFSET 0.000000 0.000000 3.350403
											CHANNELS 6 Xposition Yposition Zposition Zrotation Yrotation Xrotation
											JOINT LeftHandPinky3
											{
												OFFSET 0.000000 0.000000 2.842758
												CHANNELS 6 Xposition Yposition Zposition Zrotation Yrotation Xrotation
												JOINT LeftHandPinky4
												{
													OFFSET 0.000000 0.000000 2.639709
													CHANNELS 6 Xposition Yposition Zposition Zrotation Yrotation Xrotation
													End Site
													{
														OFFSET 0.000000 0.000000 0.100006
													}
												}
											}
										}
									}
									JOINT LeftForeArmEnd
									{
										OFFSET 0.000000 0.000000 0.000000
										CHANNELS 6 Xposition Yposition Zposition Zrotation Yrotation Xrotation
										End Site
										{
											OFFSET 0.000000 0.000000 0.100006
										}
									}
								}
								JOINT LeftArmEnd
								{
									OFFSET 0.000000 0.000000 0.000000
									CHANNELS 6 Xposition Yposition Zposition Zrotation Yrotation Xrotation
									End Site
									{
										OFFSET 0.000000 0.000000 0.100006
									}
								}
							}
						}
					}
				}
			}
		}
	}
	JOINT RightUpLeg
	{
		OFFSET -11.289944 0.000000 0.000000
		CHANNELS 6 Xposition Yposition Zposition Zrotation Yrotation Xrotation
		JOINT RightLeg
		{
			OFFSET 0.000000 -0.000004 -38.200321
			CHANNELS 6 Xposition Yposition Zposition Zrotation Yrotation Xrotation
			JOINT RightFoot
			{
				OFFSET 0.000000 -0.000004 -39.900856
				CHANNELS 6 Xposition Yposition Zposition Zrotation Yrotation Xrotation
				JOINT RightToeBase
				{
					OFFSET 0.000000 -15.261642 0.000002
					CHANNELS 6 Xposition Yposition Zposition Zrotation Yrotation Xrotation
					JOINT RightToeBaseEnd
					{
						OFFSET 0.000000 -7.370712 0.000000
						CHANNELS 6 Xposition Yposition Zposition Zrotation Yrotation Xrotation
						End Site
						{
							OFFSET 0.000000 0.000000 0.100000
						}
					}
				}
				JOINT RightLegEnd
				{
					OFFSET 0.000000 0.000000 0.000000
					CHANNELS 6 Xposition Yposition Zposition Zrotation Yrotation Xrotation
					End Site
					{
						OFFSET 0.000000 0.000000 0.100000
					}
				}
			}
			JOINT RightUpLegEnd
			{
				OFFSET 0.000000 0.000000 0.000000
				CHANNELS 6 Xposition Yposition Zposition Zrotation Yrotation Xrotation
				End Site
				{
					OFFSET 0.000000 0.000000 0.099998
				}
			}
		}
	}
	JOINT LeftUpLeg
	{
		OFFSET 11.315662 0.000000 0.000000
		CHANNELS 6 Xposition Yposition Zposition Zrotation Yrotation Xrotation
		JOINT LeftLeg
		{
			OFFSET 0.000000 -0.000004 -38.200321
			CHANNELS 6 Xposition Yposition Zposition Zrotation Yrotation Xrotation
			JOINT LeftFoot
			{
				OFFSET 0.000000 -0.000004 -39.900856
				CHANNELS 6 Xposition Yposition Zposition Zrotation Yrotation Xrotation
				JOINT LeftToeBase
				{
					OFFSET 0.000000 -15.261642 0.000002
					CHANNELS 6 Xposition Yposition Zposition Zrotation Yrotation Xrotation
					JOINT LeftToeBaseEnd
					{
						OFFSET 0.000000 -7.539993 0.000000
						CHANNELS 6 Xposition Yposition Zposition Zrotation Yrotation Xrotation
						End Site
						{
							OFFSET 0.000000 0.000000 0.100000
						}
					}
				}
				JOINT LeftLegEnd
				{
					OFFSET 0.000000 0.000000 0.000000
					CHANNELS 6 Xposition Yposition Zposition Zrotation Yrotation Xrotation
					End Site
					{
						OFFSET 0.000000 0.000000 0.100000
					}
				}
			}
			JOINT LeftUpLegEnd
			{
				OFFSET 0.000000 0.000000 0.000000
				CHANNELS 6 Xposition Yposition Zposition Zrotation Yrotation Xrotation
				End Site
				{
					OFFSET 0.000000 0.000000 0.099998
				}
			}
		}
	}
}
MOTION
Frames: 2
Frame Time: 0.016667
-16.880756 -10.934246 83.418541 -40.183492 -1.292094 -16.436534 -0.000001 2.080106 8.814264 -1.353997 -5.092451 12.076588 0.000006 0.000001 8.844146 -1.132843 -3.250159 8.245026 -0.000002 -0.000002 11.682271 -0.379583 -0.782628 7.672772 -0.000001 0.000002 11.746697 -0.835634 0.598275 3.793406 0.000007 -0.000005 17.658270 16.116653 2.503324 25.671356 0.000003 0.000019 5.101539 10.777706 1.583577 1.415335 -0.000001 0.000007 5.101527 2.512962 4.972626 -24.592846 -0.000003 0.000000 11.655104 -0.000001 -0.000002 0.000001 -2.625396 -0.000009 11.175212 14.355067 -72.124639 -0.461917 -0.000015 0.000007 10.434719 -2.645288 -48.947277 56.183688 -0.000007 0.000000 29.628387 15.599085 -0.344738 117.260742 -0.000015 0.000002 22.857592 -51.321372 10.477164 -7.182034 -2.867319 -2.944301 3.959568 32.577048 -13.119607 58.269348 -0.000001 -0.000012 3.350401 -3.715614 3.276731 -7.187878 -0.000008 -0.000005 3.756503 -2.536264 2.325348 -4.968122 0.000009 0.000001 3.147340 0.000000 0.000001 -0.000001 -0.086746 -2.345280 10.030929 -5.336470 19.932048 18.350415 0.000003 0.000014 4.061103 0.597548 0.000020 0.000051 -0.000001 -0.000009 3.248876 0.090937 0.000005 0.000788 0.000003 0.000001 2.639693 0.000000 -0.000000 0.000001 0.104113 -0.006763 9.502963 -0.655115 16.801009 12.271581 -0.000002 -0.000009 4.568734 0.578905 -0.000071 -0.000127 -0.000000 -0.000009 3.655002 0.063676 0.000007 0.001630 -0.000000 -0.000008 2.741241 0.000001 -0.000000 0.000000 0.086751 2.267439 8.921700 7.372607 14.815705 3.943244 0.000002 0.000000 4.061090 -1.082298 -0.000039 -0.000320 -0.000003 0.000013 3.655006 -0.067418 -0.000002 -0.000035 0.000004 -0.000004 2.741256 0.000001 -0.000001 0.000000 -0.173509 4.467190 7.976995 15.762902 15.072563 -4.971111 0.000000 0.000003 3.350425 -2.117321 -0.016392 0.000833 -0.000001 0.000005 2.842741 -0.098599 -0.000006 -0.002385 -0.000001 -0.000005 2.639725 0.000001 -0.000000 -0.000000 0.000007 -0.000005 0.000017 0.000000 0.000002 -0.000000 -0.000009 0.000001 -0.000016 -0.000001 0.000003 0.000004 2.625399 0.000000 11.175232 -12.209267 74.896651 -0.744682 0.000006 0.000004 10.813622 -52.926395 32.384840 -46.945642 -0.000016 0.000011 28.724804 -13.221297 0.264034 131.414356 0.644373 0.328859 25.716198 45.822219 -32.780520 4.415387 2.867306 -2.944305 3.959565 -32.088905 14.721964 55.537276 0.000000 0.000006 3.350426 7.118223 -5.629057 -13.353037 0.000001 -0.000008 3.756529 4.801540 -4.087738 -9.191159 -0.000003 -0.000004 3.100008 0.000003 0.000001 -0.000003 0.086746 -2.345280 10.030907 -8.025503 3.248879 15.262686 -0.000005 0.000007 4.061113 0.495120 0.693814 -0.097567 -0.000001 0.000001 3.248890 -0.002454 0.693835 -0.097532 0.000001 -0.000005 2.639724 0.000003 -0.000001 0.000000 -0.104112 -0.006771 9.502953 -3.700027 -0.827771 8.959374 -0.000004 -0.000008 4.568754 0.538937 0.000138 0.017050 -0.000005 -0.000011 3.654984 0.028908 0.000001 0.014630 0.000002 0.000000 2.741258 0.000001 -0.000002 -0.000003 -0.086759 2.267448 8.921700 3.286855 -7.072354 0.158864 -0.000005 -0.000015 4.061096 -1.060946 -0.000011 -0.008215 0.000005 0.000017 3.654983 -0.061365 -0.000000 -0.006360 0.000001 0.000005 2.741241 0.000001 0.000001 0.000001 0.173502 4.467191 7.976986 10.779279 -11.939322 -8.803348 0.000005 0.000003 3.350423 -2.078126 0.027961 -0.001047 -0.000008 0.000008 2.842781 -0.066737 -0.015125 0.004051 -0.000007 0.000008 2.639710 0.000000 0.000000 -0.000001 -0.000009 -0.000001 0.000001 -0.000001 -0.000002 -0.000002 0.000003 -0.000006 -0.000012 0.000001 0.000004 -0.000001 -11.289943 -0.000006 0.000017 2.749315 0.231402 0.300808 -0.000000 -0.000015 -38.200317 -0.676123 0.621543 42.822394 -0.000000 -0.000011 -39.900856 -11.731740 1.958021 3.056133 0.000001 -15.261650 0.000004 -1.402699 0.261485 -30.011096 0.000000 -7.370718 0.000001 -0.000002 0.000001 0.000000 0.000001 -0.000004 0.000001 0.000001 0.000001 0.000001 -0.000001 -0.000001 0.000001 0.000001 0.000001 0.000001 11.315660 -0.000008 0.000018 9.661148 -17.062497 -2.105015 -0.000002 -0.000002 -38.200314 1.189253 -0.567662 25.406608 0.000001 -0.000002 -39.900856 7.769910 9.590422 23.952947 -0.000001 -15.261648 0.000006 0.077392 -0.054577 -31.636029 -0.000003 -7.540001 0.000002 0.000001 0.000000 -0.000000 -0.000000 -0.000004 0.000002 0.000001 -0.000000 -0.000001 0.000001 -0.000004 -0.000000 0.000000 -0.000001 -0.000000 
-16.877697 -10.858345 83.383095 -40.385228 -1.547835 -16.404895 0.000003 2.080108 8.814257 -1.380648 -5.127353 12.067919 0.000000 -0.000000 8.844145 -1.174612 -3.326653 8.274565 -0.000000 -0.000002 11.682262 -0.439397 -0.813532 7.693784 0.000001 0.000005 11.746699 -0.855907 0.621276 3.809113 0.000001 -0.000008 17.658272 16.080849 2.492590 25.673001 -0.000007 0.000015 5.101542 10.765123 1.571335 1.407686 0.000004 -0.000001 5.101508 2.537293 4.938138 -24.595308 -0.000003 0.000002 11.655077 -0.000000 0.000001 -0.000001 -2.625396 0.000003 11.175239 14.293488 -72.143388 -0.462012 -0.000023 0.000008 10.434723 -2.718289 -48.428343 56.115034 0.000002 -0.000006 29.628429 15.661299 -0.343613 117.195924 -0.000017 0.000003 22.857586 -51.258302 10.897285 -7.028034 -2.867323 -2.944284 3.959571 32.577048 -13.119573 58.269655 0.000013 -0.000017 3.350413 -3.715673 3.276684 -7.188710 0.000017 -0.000004 3.756504 -2.536174 2.325453 -4.967545 0.000002 -0.000008 3.147310 0.000003 0.000001 -0.000001 -0.086743 -2.345276 10.030928 -5.374078 19.733371 18.048626 0.000005 0.000011 4.061118 0.597791 0.000019 0.000050 -0.000000 0.000001 3.248876 0.091174 0.000006 0.000809 -0.000002 -0.000002 2.639723 0.000001 -0.000000 0.000001 0.104107 -0.006762 9.502967 -0.681586 16.652250 12.022449 0.000002 -0.000004 4.568732 0.579153 -0.000057 -0.000109 -0.000001 -0.000014 3.654994 0.064082 0.000004 0.001657 0.000003 -0.000015 2.741243 -0.000001 0.000000 -0.000002 0.086751 2.267441 8.921714 7.352215 14.727227 3.783056 -0.000001 -0.000000 4.061097 -1.082632 -0.000026 -0.000316 0.000001 -0.000001 3.654994 -0.067644 -0.000000 -0.000038 0.000003 0.000006 2.741242 0.000000 0.000001 0.000000 -0.173513 4.467192 7.976981 15.751629 15.022817 -5.019613 -0.000001 0.000006 3.350423 -2.117457 -0.000003 0.000223 -0.000004 0.000000 2.842746 -0.098728 -0.000003 -0.002319 0.000000 -0.000005 2.639724 0.000002 -0.000001 -0.000000 0.000003 0.000001 -0.000002 0.000000 -0.000003 0.000000 -0.000009 0.000001 0.000002 0.000002 0.000002 -0.000001 2.625409 -0.000000 11.175235 -12.203009 74.994323 -0.740267 0.000001 -0.000002 10.813620 -53.123306 32.196859 -47.283788 -0.000000 0.000004 28.724764 -13.108975 0.293811 131.474544 0.644384 0.328880 25.716173 45.814091 -32.851796 4.314689 2.867315 -2.944305 3.959544 -32.088929 14.721952 55.537286 -0.000010 0.000014 3.350428 7.118227 -5.629046 -13.353112 -0.000002 -0.000011 3.756525 4.801527 -4.087723 -9.191101 -0.000004 -0.000001 3.100020 0.000002 -0.000000 0.000001 0.086755 -2.345270 10.030911 -8.067609 3.033079 14.908440 0.000002 -0.000002 4.061103 0.495440 0.576832 -0.081371 0.000004 0.000002 3.248874 -0.002313 0.579528 -0.081388 0.000004 0.000010 2.639709 0.000001 0.000001 0.000002 -0.104114 -0.006754 9.502959 -3.726474 -0.978774 8.666231 -0.000005 -0.000000 4.568734 0.537866 0.000134 0.018356 -0.000001 0.000005 3.655006 0.028147 -0.000002 0.015690 -0.000002 -0.000006 2.741243 -0.000001 0.000001 -0.000002 -0.086755 2.267464 8.921703 3.273098 -7.135544 -0.075235 -0.000002 -0.000016 4.061096 -1.061235 0.000035 -0.008393 -0.000003 -0.000001 3.654980 -0.061490 -0.000001 -0.006466 0.000001 -0.000001 2.741242 -0.000000 0.000001 0.000000 0.173501 4.467222 7.976985 10.767612 -11.918946 -8.964419 0.000000 -0.000002 3.350410 -2.078066 0.000001 -0.000033 -0.000009 0.000007 2.842770 -0.066703 -0.000002 0.004102 -0.000006 0.000006 2.639725 0.000003 0.000000 0.000000 -0.000003 0.000016 -0.000014 0.000001 0.000001 -0.000000 0.000013 -0.000002 -0.000006 -0.000001 -0.000004 0.000004 -11.289943 -0.000006 0.000017 3.222858 0.299104 0.049554 -0.000002 -0.000010 -38.200317 -0.674932 0.627635 43.148945 0.000002 -0.000009 -39.900852 -11.960868 1.888749 2.926171 0.000001 -15.261646 0.000001 -1.432960 0.304658 -29.949915 0.000001 -7.370720 0.000002 -0.000000 0.000001 0.000000 -0.000001 -0.000005 -0.000000 -0.000003 -0.000001 0.000001 0.000002 -0.000004 0.000001 -0.000001 -0.000002 0.000001 11.315668 -0.000011 0.000011 9.691615 -16.854120 -1.968324 0.000004 -0.000010 -38.200302 1.198404 -0.568752 25.234349 -0.000002 -0.000007 -39.900860 8.037100 9.646418 24.093962 -0.000001 -15.261645 0.000000 0.033324 -0.040045 -31.596448 -0.000002 -7.540001 0.000001 0.000001 0.000000 -0.000000 -0.000001 -0.000004 -0.000000 0.000000 -0.000000 0.000002 -0.000004 -0.000004 0.000000 -0.000001 -0.000000 -0.000000 
